<svg width="107" height="24" viewBox="0 0 107 24" fill="none" xmlns="http://www.w3.org/2000/svg">
<rect width="107" height="24" rx="12" fill="#333333"/>
<path d="M10.4107 18C10.1036 18 9.84733 17.8973 9.642 17.692C9.43667 17.4867 9.33378 17.2304 9.33333 16.9233V9.74333C9.33333 9.43667 9.43622 9.18067 9.642 8.97533C9.84778 8.77 10.104 8.66711 10.4107 8.66667H11.6667V8.33333C11.6667 7.68533 11.8936 7.13444 12.3473 6.68067C12.8011 6.22689 13.352 6 14 6C14.648 6 15.1989 6.22689 15.6527 6.68067C16.1064 7.13444 16.3333 7.68533 16.3333 8.33333V8.66667H17.59C17.8967 8.66667 18.1527 8.76956 18.358 8.97533C18.5633 9.18111 18.6662 9.43733 18.6667 9.744V16.9233C18.6667 17.23 18.5638 17.4862 18.358 17.692C18.1522 17.8978 17.8962 18.0004 17.59 18H10.4107ZM10.4107 17.3333H17.59C17.6922 17.3333 17.7862 17.2907 17.872 17.2053C17.9578 17.12 18.0004 17.0258 18 16.9227V9.744C18 9.64133 17.9573 9.54711 17.872 9.46133C17.7867 9.37556 17.6924 9.33289 17.5893 9.33333H16.3333V9.66667C16.3333 9.76178 16.3016 9.84111 16.238 9.90467C16.1744 9.96822 16.0951 10 16 10C15.9049 10 15.8256 9.96822 15.762 9.90467C15.6984 9.84111 15.6667 9.76178 15.6667 9.66667V9.33333H12.3333V9.66667C12.3333 9.76178 12.3016 9.84111 12.238 9.90467C12.1744 9.96822 12.0951 10 12 10C11.9049 10 11.8256 9.96822 11.762 9.90467C11.6984 9.84111 11.6667 9.76178 11.6667 9.66667V9.33333H10.4107C10.308 9.33333 10.2138 9.376 10.128 9.46133C10.0422 9.54667 9.99956 9.64089 10 9.744V16.9233C10 17.0256 10.0427 17.1196 10.128 17.2053C10.2133 17.2911 10.3073 17.3338 10.41 17.3333M12.3333 8.66667H15.6667V8.33333C15.6667 7.864 15.5062 7.46889 15.1853 7.148C14.8644 6.82711 14.4693 6.66667 14 6.66667C13.5307 6.66667 13.1356 6.82711 12.8147 7.148C12.4938 7.46889 12.3333 7.864 12.3333 8.33333V8.66667Z" fill="white"/>
<path d="M10.4107 17.3333H17.59C17.6922 17.3333 17.7862 17.2907 17.872 17.2053C17.9578 17.12 18.0004 17.0258 18 16.9227V9.744C18 9.64133 17.9573 9.54711 17.872 9.46133C17.7867 9.37556 17.6924 9.33289 17.5893 9.33333H16.3333V9.66667C16.3333 9.76178 16.3016 9.84111 16.238 9.90467C16.1744 9.96822 16.0951 10 16 10C15.9049 10 15.8256 9.96822 15.762 9.90467C15.6984 9.84111 15.6667 9.76178 15.6667 9.66667V9.33333H12.3333V9.66667C12.3333 9.76178 12.3016 9.84111 12.238 9.90467C12.1744 9.96822 12.0951 10 12 10C11.9049 10 11.8256 9.96822 11.762 9.90467C11.6984 9.84111 11.6667 9.76178 11.6667 9.66667V9.33333H10.4107C10.308 9.33333 10.2138 9.376 10.128 9.46133C10.0422 9.54667 9.99956 9.64089 10 9.744V16.9233C10 17.0256 10.0427 17.1196 10.128 17.2053C10.2133 17.2911 10.3073 17.3338 10.41 17.3333M10 17.3333V9.33333M10.4107 18C10.1036 18 9.84733 17.8973 9.642 17.692C9.43667 17.4867 9.33378 17.2304 9.33333 16.9233V9.74333C9.33333 9.43667 9.43622 9.18067 9.642 8.97533C9.84778 8.77 10.104 8.66711 10.4107 8.66667H11.6667V8.33333C11.6667 7.68533 11.8936 7.13444 12.3473 6.68067C12.8011 6.22689 13.352 6 14 6C14.648 6 15.1989 6.22689 15.6527 6.68067C16.1064 7.13444 16.3333 7.68533 16.3333 8.33333V8.66667H17.59C17.8967 8.66667 18.1527 8.76956 18.358 8.97533C18.5633 9.18111 18.6662 9.43733 18.6667 9.744V16.9233C18.6667 17.23 18.5638 17.4862 18.358 17.692C18.1522 17.8978 17.8962 18.0004 17.59 18H10.4107ZM12.3333 8.66667H15.6667V8.33333C15.6667 7.864 15.5062 7.46889 15.1853 7.148C14.8644 6.82711 14.4693 6.66667 14 6.66667C13.5307 6.66667 13.1356 6.82711 12.8147 7.148C12.4938 7.46889 12.3333 7.864 12.3333 8.33333V8.66667Z" stroke="white" stroke-width="0.228571"/>
<path d="M15.9504 13.4285C15.578 13.0561 15.0832 12.8517 14.5572 12.8517H12.3749L13.1132 12.1134C13.2148 12.0118 13.2148 11.8471 13.1132 11.7449C13.0116 11.6427 12.8469 11.6433 12.7447 11.7449L11.5487 12.9415C11.4999 12.9903 11.4726 13.0567 11.4726 13.1257C11.4726 13.1948 11.4999 13.2612 11.5487 13.31L12.7108 14.4721C12.7616 14.5229 12.828 14.5483 12.8951 14.5483C12.9621 14.5483 13.0286 14.5229 13.0793 14.4721C13.1809 14.3705 13.1809 14.2058 13.0793 14.1036L12.3476 13.3725H14.5572C14.9446 13.3725 15.3085 13.5235 15.5819 13.797C15.856 14.0711 16.0064 14.435 16.0064 14.8217V16.0717C16.0064 16.2156 16.123 16.3321 16.2668 16.3321C16.4107 16.3321 16.5272 16.2156 16.5272 16.0717V14.8217C16.5279 14.2957 16.3228 13.8009 15.9504 13.4285Z" fill="white" stroke="white" stroke-width="0.228571"/>
<path d="M25.6275 16.084C25.4275 16.084 25.2715 16.028 25.1595 15.916C25.0555 15.804 25.0035 15.648 25.0035 15.448V8.176C25.0035 7.968 25.0595 7.812 25.1715 7.708C25.2835 7.596 25.4395 7.54 25.6395 7.54H28.5075C29.4195 7.54 30.1235 7.756 30.6195 8.188C31.1155 8.62 31.3635 9.232 31.3635 10.024C31.3635 10.536 31.2515 10.976 31.0275 11.344C30.8035 11.712 30.4755 11.992 30.0435 12.184C29.6195 12.376 29.1075 12.472 28.5075 12.472L28.6155 12.304H28.9275C29.2475 12.304 29.5235 12.384 29.7555 12.544C29.9955 12.704 30.2115 12.96 30.4035 13.312L31.4355 15.232C31.5155 15.376 31.5515 15.516 31.5435 15.652C31.5435 15.78 31.4955 15.884 31.3995 15.964C31.3115 16.044 31.1835 16.084 31.0155 16.084C30.8395 16.084 30.6955 16.048 30.5835 15.976C30.4795 15.896 30.3835 15.78 30.2955 15.628L29.0355 13.3C28.8675 12.988 28.6755 12.78 28.4595 12.676C28.2435 12.564 27.9595 12.508 27.6075 12.508H26.2515V15.448C26.2515 15.648 26.1995 15.804 26.0955 15.916C25.9915 16.028 25.8355 16.084 25.6275 16.084ZM26.2515 11.572H28.3035C28.9115 11.572 29.3715 11.444 29.6835 11.188C29.9955 10.932 30.1515 10.552 30.1515 10.048C30.1515 9.552 29.9955 9.176 29.6835 8.92C29.3715 8.664 28.9115 8.536 28.3035 8.536H26.2515V11.572ZM33.7966 16C33.5806 16 33.4126 15.944 33.2926 15.832C33.1806 15.712 33.1246 15.544 33.1246 15.328V8.212C33.1246 7.996 33.1806 7.832 33.2926 7.72C33.4126 7.6 33.5806 7.54 33.7966 7.54H38.1766C38.3446 7.54 38.4726 7.584 38.5606 7.672C38.6486 7.752 38.6926 7.872 38.6926 8.032C38.6926 8.2 38.6486 8.328 38.5606 8.416C38.4726 8.504 38.3446 8.548 38.1766 8.548H34.3246V11.2H37.9126C38.0886 11.2 38.2166 11.244 38.2966 11.332C38.3846 11.42 38.4286 11.544 38.4286 11.704C38.4286 11.872 38.3846 12 38.2966 12.088C38.2166 12.168 38.0886 12.208 37.9126 12.208H34.3246V14.992H38.1766C38.3446 14.992 38.4726 15.036 38.5606 15.124C38.6486 15.212 38.6926 15.336 38.6926 15.496C38.6926 15.664 38.6486 15.792 38.5606 15.88C38.4726 15.96 38.3446 16 38.1766 16H33.7966ZM42.7736 16.084C42.5736 16.084 42.4176 16.028 42.3056 15.916C42.2016 15.804 42.1496 15.648 42.1496 15.448V8.584H39.6056C39.4376 8.584 39.3056 8.54 39.2096 8.452C39.1136 8.356 39.0656 8.224 39.0656 8.056C39.0656 7.888 39.1136 7.76 39.2096 7.672C39.3056 7.584 39.4376 7.54 39.6056 7.54H45.9296C46.1056 7.54 46.2416 7.584 46.3376 7.672C46.4336 7.76 46.4816 7.888 46.4816 8.056C46.4816 8.224 46.4336 8.356 46.3376 8.452C46.2416 8.54 46.1056 8.584 45.9296 8.584H43.3856V15.448C43.3856 15.648 43.3336 15.804 43.2296 15.916C43.1336 16.028 42.9816 16.084 42.7736 16.084ZM50.8415 16.108C50.2735 16.108 49.7735 16.036 49.3415 15.892C48.9095 15.74 48.5455 15.516 48.2495 15.22C47.9615 14.924 47.7415 14.556 47.5895 14.116C47.4375 13.676 47.3615 13.168 47.3615 12.592V8.08C47.3615 7.872 47.4135 7.716 47.5175 7.612C47.6295 7.508 47.7855 7.456 47.9855 7.456C48.1855 7.456 48.3375 7.508 48.4415 7.612C48.5535 7.716 48.6095 7.872 48.6095 8.08V12.568C48.6095 13.392 48.7975 14.008 49.1735 14.416C49.5575 14.824 50.1135 15.028 50.8415 15.028C51.5775 15.028 52.1335 14.824 52.5095 14.416C52.8855 14.008 53.0735 13.392 53.0735 12.568V8.08C53.0735 7.872 53.1255 7.716 53.2295 7.612C53.3415 7.508 53.4935 7.456 53.6855 7.456C53.8855 7.456 54.0375 7.508 54.1415 7.612C54.2455 7.716 54.2975 7.872 54.2975 8.08V12.592C54.2975 13.36 54.1655 14.008 53.9015 14.536C53.6455 15.056 53.2615 15.448 52.7495 15.712C52.2375 15.976 51.6015 16.108 50.8415 16.108ZM56.8463 16.084C56.6463 16.084 56.4903 16.028 56.3783 15.916C56.2743 15.804 56.2223 15.648 56.2223 15.448V8.176C56.2223 7.968 56.2783 7.812 56.3903 7.708C56.5023 7.596 56.6583 7.54 56.8583 7.54H59.7263C60.6383 7.54 61.3423 7.756 61.8383 8.188C62.3343 8.62 62.5823 9.232 62.5823 10.024C62.5823 10.536 62.4703 10.976 62.2463 11.344C62.0223 11.712 61.6943 11.992 61.2623 12.184C60.8383 12.376 60.3263 12.472 59.7263 12.472L59.8343 12.304H60.1463C60.4663 12.304 60.7423 12.384 60.9743 12.544C61.2143 12.704 61.4303 12.96 61.6223 13.312L62.6543 15.232C62.7343 15.376 62.7703 15.516 62.7623 15.652C62.7623 15.78 62.7143 15.884 62.6183 15.964C62.5303 16.044 62.4023 16.084 62.2343 16.084C62.0583 16.084 61.9143 16.048 61.8023 15.976C61.6983 15.896 61.6023 15.78 61.5143 15.628L60.2543 13.3C60.0863 12.988 59.8943 12.78 59.6783 12.676C59.4623 12.564 59.1783 12.508 58.8263 12.508H57.4703V15.448C57.4703 15.648 57.4183 15.804 57.3143 15.916C57.2103 16.028 57.0543 16.084 56.8463 16.084ZM57.4703 11.572H59.5223C60.1303 11.572 60.5903 11.444 60.9023 11.188C61.2143 10.932 61.3703 10.552 61.3703 10.048C61.3703 9.552 61.2143 9.176 60.9023 8.92C60.5903 8.664 60.1303 8.536 59.5223 8.536H57.4703V11.572ZM64.9314 16.084C64.7474 16.084 64.6034 16.032 64.4994 15.928C64.3954 15.824 64.3434 15.676 64.3434 15.484V8.08C64.3434 7.88 64.3914 7.728 64.4874 7.624C64.5914 7.512 64.7274 7.456 64.8954 7.456C65.0394 7.456 65.1474 7.484 65.2194 7.54C65.2994 7.588 65.3914 7.68 65.4954 7.816L70.4394 14.332H70.1394V8.044C70.1394 7.86 70.1874 7.716 70.2834 7.612C70.3874 7.508 70.5314 7.456 70.7154 7.456C70.9074 7.456 71.0514 7.508 71.1474 7.612C71.2434 7.716 71.2914 7.86 71.2914 8.044V15.496C71.2914 15.68 71.2434 15.824 71.1474 15.928C71.0594 16.032 70.9394 16.084 70.7874 16.084C70.6434 16.084 70.5234 16.056 70.4274 16C70.3394 15.944 70.2434 15.848 70.1394 15.712L65.2194 9.208H65.4954V15.484C65.4954 15.676 65.4474 15.824 65.3514 15.928C65.2554 16.032 65.1154 16.084 64.9314 16.084ZM77.0974 16C76.8814 16 76.7134 15.944 76.5934 15.832C76.4814 15.712 76.4254 15.544 76.4254 15.328V8.212C76.4254 7.996 76.4814 7.832 76.5934 7.72C76.7134 7.6 76.8814 7.54 77.0974 7.54H79.9534C80.5374 7.54 81.0334 7.628 81.4414 7.804C81.8574 7.98 82.1734 8.232 82.3894 8.56C82.6134 8.888 82.7254 9.284 82.7254 9.748C82.7254 10.26 82.5734 10.692 82.2694 11.044C81.9654 11.396 81.5534 11.632 81.0334 11.752V11.572C81.6254 11.652 82.0894 11.876 82.4254 12.244C82.7614 12.604 82.9294 13.076 82.9294 13.66C82.9294 14.412 82.6814 14.992 82.1854 15.4C81.6894 15.8 80.9934 16 80.0974 16H77.0974ZM77.6254 15.04H79.9534C80.5534 15.04 80.9974 14.924 81.2854 14.692C81.5734 14.452 81.7174 14.092 81.7174 13.612C81.7174 13.132 81.5734 12.776 81.2854 12.544C80.9974 12.312 80.5534 12.196 79.9534 12.196H77.6254V15.04ZM77.6254 11.236H79.7614C80.3374 11.236 80.7734 11.12 81.0694 10.888C81.3654 10.656 81.5134 10.316 81.5134 9.868C81.5134 9.42 81.3654 9.08 81.0694 8.848C80.7734 8.616 80.3374 8.5 79.7614 8.5H77.6254V11.236ZM84.4868 16.084C84.3268 16.084 84.1988 16.048 84.1028 15.976C84.0068 15.904 83.9508 15.808 83.9348 15.688C83.9188 15.568 83.9428 15.432 84.0068 15.28L87.2588 7.984C87.3388 7.792 87.4388 7.656 87.5588 7.576C87.6868 7.496 87.8268 7.456 87.9788 7.456C88.1228 7.456 88.2548 7.496 88.3748 7.576C88.5028 7.656 88.6068 7.792 88.6868 7.984L91.9388 15.28C92.0108 15.432 92.0388 15.572 92.0228 15.7C92.0068 15.82 91.9548 15.916 91.8668 15.988C91.7788 16.052 91.6548 16.084 91.4948 16.084C91.3188 16.084 91.1788 16.04 91.0748 15.952C90.9708 15.864 90.8788 15.728 90.7988 15.544L89.9588 13.6L90.5228 13.936H85.4108L85.9628 13.6L85.1348 15.544C85.0548 15.736 84.9668 15.876 84.8708 15.964C84.7748 16.044 84.6468 16.084 84.4868 16.084ZM87.9548 8.92L86.1428 13.216L85.8428 12.928H90.0788L89.8028 13.216L87.9788 8.92H87.9548ZM97.1667 16.108C96.2467 16.108 95.4707 15.936 94.8387 15.592C94.2067 15.24 93.7267 14.74 93.3987 14.092C93.0787 13.444 92.9187 12.672 92.9187 11.776C92.9187 11.104 93.0107 10.504 93.1947 9.976C93.3867 9.44 93.6587 8.984 94.0107 8.608C94.3707 8.224 94.8067 7.932 95.3187 7.732C95.8387 7.532 96.4267 7.432 97.0827 7.432C97.5627 7.432 98.0347 7.496 98.4987 7.624C98.9627 7.744 99.3867 7.944 99.7707 8.224C99.8827 8.304 99.9547 8.396 99.9867 8.5C100.019 8.604 100.019 8.712 99.9867 8.824C99.9627 8.928 99.9107 9.02 99.8307 9.1C99.7587 9.18 99.6667 9.228 99.5547 9.244C99.4507 9.26 99.3347 9.228 99.2067 9.148C98.8947 8.932 98.5667 8.776 98.2227 8.68C97.8787 8.576 97.4987 8.524 97.0827 8.524C96.4587 8.524 95.9307 8.652 95.4987 8.908C95.0747 9.164 94.7547 9.536 94.5387 10.024C94.3227 10.504 94.2147 11.088 94.2147 11.776C94.2147 12.84 94.4667 13.648 94.9707 14.2C95.4747 14.752 96.2227 15.028 97.2147 15.028C97.5747 15.028 97.9267 14.996 98.2707 14.932C98.6227 14.86 98.9587 14.76 99.2787 14.632L99.0267 15.256V12.46H97.4787C97.3187 12.46 97.1907 12.42 97.0947 12.34C97.0067 12.252 96.9627 12.132 96.9627 11.98C96.9627 11.828 97.0067 11.716 97.0947 11.644C97.1907 11.564 97.3187 11.524 97.4787 11.524H99.5547C99.7227 11.524 99.8507 11.568 99.9387 11.656C100.027 11.744 100.071 11.872 100.071 12.04V15.064C100.071 15.208 100.043 15.332 99.9867 15.436C99.9387 15.532 99.8547 15.604 99.7347 15.652C99.3907 15.788 98.9867 15.9 98.5227 15.988C98.0587 16.068 97.6067 16.108 97.1667 16.108Z" fill="white"/>
</svg>
